<?xml version="1.0" standalone="no"?>
<!DOCTYPE svg PUBLIC "-//W3C//DTD SVG 20010904//EN"
 "http://www.w3.org/TR/2001/REC-SVG-20010904/DTD/svg10.dtd">
<svg version="1.0" xmlns="http://www.w3.org/2000/svg"
 width="260.000000pt" height="260.000000pt" viewBox="0 0 260.000000 260.000000"
 preserveAspectRatio="xMidYMid meet">
<metadata>
Created by potrace 1.14, written by Peter Selinger 2001-2017
</metadata>
<g transform="translate(0.000000,260.000000) scale(0.100000,-0.100000)"
fill="#000000" stroke="none">
<path d="M1130 2580 c0 -19 -7 -20 -110 -20 l-110 0 0 -25 c0 -23 -4 -25 -45
-25 -38 0 -45 -3 -45 -20 0 -18 -7 -20 -65 -20 -58 0 -65 -2 -65 -20 0 -13 -7
-20 -20 -20 -15 0 -20 -7 -20 -25 0 -23 -4 -25 -45 -25 -38 0 -45 -3 -45 -20
0 -13 -7 -20 -20 -20 -13 0 -20 -7 -20 -20 0 -13 -7 -20 -20 -20 -15 0 -20 -7
-20 -25 0 -23 -4 -25 -45 -25 -38 0 -45 -3 -45 -20 0 -13 -7 -20 -20 -20 -17
0 -20 -7 -20 -45 0 -41 -2 -45 -25 -45 -18 0 -25 -5 -25 -20 0 -13 -7 -20 -20
-20 -13 0 -20 -7 -20 -20 0 -13 -7 -20 -20 -20 -17 0 -20 -7 -20 -45 0 -41 -2
-45 -25 -45 -18 0 -25 -5 -25 -20 0 -13 -7 -20 -20 -20 -18 0 -20 -7 -20 -65
0 -58 -2 -65 -20 -65 -17 0 -20 -7 -20 -45 0 -41 -2 -45 -25 -45 l-25 0 0
-110 c0 -103 -1 -110 -20 -110 -19 0 -20 -7 -20 -195 0 -188 1 -195 20 -195
18 0 20 -7 20 -85 0 -84 0 -85 25 -85 23 0 25 -4 25 -45 0 -38 3 -45 20 -45
18 0 20 -7 20 -65 0 -58 2 -65 20 -65 13 0 20 -7 20 -20 0 -15 7 -20 25 -20
23 0 25 -4 25 -45 0 -38 3 -45 20 -45 13 0 20 -7 20 -20 0 -13 7 -20 20 -20
13 0 20 -7 20 -20 0 -15 7 -20 25 -20 20 0 25 -5 25 -25 0 -18 5 -25 20 -25
13 0 20 -7 20 -20 0 -13 7 -20 20 -20 13 0 20 -7 20 -20 0 -15 7 -20 25 -20
20 0 25 -5 25 -25 0 -18 5 -25 20 -25 13 0 20 -7 20 -20 0 -13 7 -20 20 -20
13 0 20 -7 20 -20 0 -17 7 -20 45 -20 41 0 45 -2 45 -25 0 -18 5 -25 20 -25
13 0 20 -7 20 -20 0 -17 7 -20 45 -20 38 0 45 -3 45 -20 0 -18 7 -20 65 -20
63 0 65 -1 65 -25 0 -25 1 -25 85 -25 78 0 85 -2 85 -20 0 -19 7 -20 175 -20
168 0 175 1 175 20 0 19 7 20 130 20 l130 0 0 25 c0 24 2 25 65 25 58 0 65 2
65 20 0 13 7 20 20 20 13 0 20 7 20 20 0 17 7 20 45 20 41 0 45 2 45 25 0 23
4 25 45 25 38 0 45 3 45 20 0 13 7 20 20 20 13 0 20 7 20 20 0 13 7 20 20 20
15 0 20 7 20 25 0 23 4 25 45 25 38 0 45 3 45 20 0 13 7 20 20 20 13 0 20 7
20 20 0 15 7 20 25 20 23 0 25 4 25 45 0 38 3 45 20 45 13 0 20 7 20 20 0 13
7 20 20 20 17 0 20 7 20 45 0 41 2 45 25 45 23 0 25 4 25 45 0 38 3 45 20 45
17 0 20 7 20 40 0 33 3 40 20 40 17 0 20 7 20 45 0 41 2 45 25 45 l25 0 0 110
c0 103 1 110 20 110 19 0 20 7 20 170 0 163 -1 170 -20 170 -19 0 -20 7 -20
90 0 89 0 90 -25 90 -24 0 -25 2 -25 65 0 58 -2 65 -20 65 -17 0 -20 7 -20 40
0 33 -3 40 -20 40 -17 0 -20 7 -20 45 0 41 -2 45 -25 45 -23 0 -25 4 -25 45 0
38 -3 45 -20 45 -13 0 -20 7 -20 20 0 13 -7 20 -20 20 -13 0 -20 7 -20 20 0
15 -7 20 -25 20 -23 0 -25 4 -25 45 0 38 -3 45 -20 45 -13 0 -20 7 -20 20 0
17 -7 20 -45 20 -41 0 -45 2 -45 25 0 18 -5 25 -20 25 -13 0 -20 7 -20 20 0
13 -7 20 -20 20 -13 0 -20 7 -20 20 0 17 -7 20 -45 20 -41 0 -45 2 -45 25 0
18 -5 25 -20 25 -13 0 -20 7 -20 20 0 17 -7 20 -45 20 -38 0 -45 3 -45 20 0
18 -7 20 -65 20 -63 0 -65 1 -65 25 0 25 -1 25 -85 25 -78 0 -85 2 -85 20 0
19 -7 20 -195 20 -188 0 -195 -1 -195 -20z m130 -90 c0 -13 7 -20 20 -20 13 0
20 7 20 20 0 13 7 20 20 20 13 0 20 -7 20 -20 0 -15 7 -20 25 -20 18 0 25 5
25 20 0 13 7 20 20 20 13 0 20 -7 20 -20 0 -19 7 -20 130 -20 123 0 130 -1
130 -20 0 -18 7 -20 65 -20 63 0 65 -1 65 -25 0 -23 4 -25 45 -25 38 0 45 -3
45 -20 0 -17 7 -20 40 -20 33 0 40 -3 40 -20 0 -15 7 -20 25 -20 20 0 25 -5
25 -25 0 -18 5 -25 20 -25 13 0 20 -7 20 -20 0 -13 7 -20 20 -20 13 0 20 -7
20 -20 0 -15 7 -20 25 -20 20 0 25 -5 25 -25 0 -18 5 -25 20 -25 13 0 20 -7
20 -20 0 -13 7 -20 20 -20 17 0 20 -7 20 -45 0 -41 2 -45 25 -45 18 0 25 -5
25 -20 0 -13 7 -20 20 -20 17 0 20 -7 20 -45 0 -38 3 -45 20 -45 13 0 20 -7
20 -20 0 -15 7 -20 25 -20 24 0 25 -2 25 -65 0 -58 2 -65 20 -65 18 0 20 -7
20 -85 0 -78 2 -85 20 -85 15 0 20 -7 20 -25 0 -20 5 -25 25 -25 18 0 25 -5
25 -20 0 -15 -7 -20 -25 -20 -18 0 -25 -5 -25 -20 0 -15 7 -20 25 -20 20 0 25
-5 25 -25 0 -20 -5 -25 -25 -25 -25 0 -25 -1 -25 -85 0 -78 -2 -85 -20 -85
-18 0 -20 -7 -20 -65 0 -58 -2 -65 -20 -65 -13 0 -20 -7 -20 -20 0 -13 7 -20
20 -20 15 0 20 -7 20 -25 0 -18 -5 -25 -20 -25 -13 0 -20 -7 -20 -20 0 -15 -7
-20 -25 -20 -25 0 -25 -1 -25 -85 0 -78 -2 -85 -20 -85 -17 0 -20 -7 -20 -45
l0 -45 -45 0 -45 0 0 -45 c0 -38 -3 -45 -20 -45 -17 0 -20 -7 -20 -40 0 -33
-3 -40 -20 -40 -15 0 -20 -7 -20 -25 0 -20 -5 -25 -25 -25 -18 0 -25 -5 -25
-20 0 -17 -7 -20 -40 -20 -33 0 -40 -3 -40 -20 0 -15 -7 -20 -25 -20 -20 0
-25 -5 -25 -25 0 -18 -5 -25 -20 -25 -13 0 -20 -7 -20 -20 0 -18 -7 -20 -65
-20 -58 0 -65 -2 -65 -20 0 -17 -7 -20 -45 -20 -41 0 -45 -2 -45 -25 0 -24 -2
-25 -65 -25 -58 0 -65 -2 -65 -20 0 -19 -7 -20 -105 -20 -98 0 -105 -1 -105
-20 0 -19 -7 -20 -130 -20 -123 0 -130 1 -130 20 0 19 -7 20 -110 20 -103 0
-110 1 -110 20 0 17 -7 20 -45 20 -41 0 -45 2 -45 25 0 23 -4 25 -40 25 -33 0
-40 3 -40 20 0 17 -7 20 -45 20 -38 0 -45 3 -45 20 0 17 -7 20 -45 20 -41 0
-45 2 -45 25 0 23 -4 25 -40 25 -33 0 -40 3 -40 20 0 15 -7 20 -25 20 -23 0
-25 4 -25 45 0 38 -3 45 -20 45 -13 0 -20 7 -20 20 0 13 -7 20 -20 20 -13 0
-20 7 -20 20 0 15 -7 20 -25 20 -20 0 -25 5 -25 25 0 18 -5 25 -20 25 -17 0
-20 7 -20 40 0 33 -3 40 -20 40 -18 0 -20 7 -20 65 0 63 -1 65 -25 65 -20 0
-25 5 -25 25 0 18 -5 25 -20 25 -13 0 -20 7 -20 20 0 13 7 20 20 20 13 0 20 7
20 20 0 13 -7 20 -20 20 -18 0 -20 7 -20 65 0 58 -2 65 -20 65 -19 0 -20 7
-20 260 0 253 1 260 20 260 18 0 20 7 20 65 0 58 2 65 20 65 18 0 20 7 20 65
0 63 1 65 25 65 20 0 25 5 25 25 0 18 5 25 20 25 17 0 20 7 20 40 0 33 3 40
20 40 15 0 20 7 20 25 0 20 5 25 25 25 23 0 25 4 25 40 0 33 3 40 20 40 15 0
20 7 20 25 0 18 5 25 20 25 13 0 20 7 20 20 0 17 7 20 45 20 38 0 45 3 45 20
0 17 7 20 45 20 41 0 45 2 45 25 0 18 5 25 20 25 13 0 20 7 20 20 0 17 7 20
45 20 38 0 45 3 45 20 0 17 7 20 40 20 36 0 40 3 40 25 0 24 2 25 65 25 58 0
65 2 65 20 0 19 7 20 110 20 103 0 110 1 110 20 0 17 7 20 45 20 38 0 45 -3
45 -20z"/>
<path d="M650 2190 c0 -13 -7 -20 -20 -20 -15 0 -20 -7 -20 -25 0 -23 -4 -25
-45 -25 -38 0 -45 -3 -45 -20 0 -13 -7 -20 -20 -20 -13 0 -20 -7 -20 -20 0
-15 -7 -20 -25 -20 -20 0 -25 -5 -25 -25 0 -18 -5 -25 -20 -25 -13 0 -20 -7
-20 -20 0 -13 -7 -20 -20 -20 -17 0 -20 -7 -20 -45 0 -41 -2 -45 -25 -45 -22
0 -25 -4 -25 -40 0 -33 -3 -40 -20 -40 -17 0 -20 -7 -20 -45 0 -38 -3 -45 -20
-45 -18 0 -20 -7 -20 -85 0 -84 0 -85 -25 -85 l-25 0 0 -155 0 -155 25 0 c18
0 25 -5 25 -20 0 -13 7 -20 20 -20 13 0 20 7 20 20 0 19 7 20 175 20 l175 0 0
25 0 25 150 0 c143 0 150 1 150 20 0 18 7 20 65 20 l65 0 0 45 c0 38 3 45 20
45 17 0 20 7 20 40 0 36 3 40 25 40 25 0 25 1 25 90 0 89 0 90 -25 90 -22 0
-25 4 -25 40 0 33 -3 40 -20 40 -15 0 -20 7 -20 25 0 18 -5 25 -20 25 -17 0
-20 7 -20 40 0 36 -2 40 -25 40 -23 0 -25 4 -25 45 0 38 -3 45 -20 45 -17 0
-20 7 -20 45 0 38 -3 45 -20 45 -17 0 -20 7 -20 40 0 36 -2 40 -25 40 -23 0
-25 4 -25 45 l0 45 -85 0 c-78 0 -85 -2 -85 -20z m90 -155 c0 -38 3 -45 20
-45 13 0 20 -7 20 -20 0 -13 -7 -20 -20 -20 -13 0 -20 -7 -20 -20 0 -17 -7
-20 -45 -20 -41 0 -45 -2 -45 -25 0 -18 -5 -25 -20 -25 -17 0 -20 -7 -20 -40
l0 -40 -45 0 c-41 0 -45 -2 -45 -25 0 -18 -5 -25 -20 -25 -17 0 -20 -7 -20
-40 0 -36 -2 -40 -25 -40 -20 0 -25 -5 -25 -25 0 -18 -5 -25 -20 -25 -17 0
-20 7 -20 45 0 38 3 45 20 45 18 0 20 7 20 65 0 63 1 65 25 65 18 0 25 5 25
20 0 13 7 20 20 20 17 0 20 7 20 45 0 38 3 45 20 45 13 0 20 7 20 20 0 15 7
20 25 20 20 0 25 5 25 25 0 23 4 25 40 25 33 0 40 3 40 20 0 15 7 20 25 20 23
0 25 -4 25 -45z"/>
<path d="M1860 2190 c0 -13 -7 -20 -20 -20 -17 0 -20 -7 -20 -45 0 -38 -3 -45
-20 -45 -17 0 -20 -7 -20 -45 0 -41 -2 -45 -25 -45 -22 0 -25 -4 -25 -40 0
-33 -3 -40 -20 -40 -17 0 -20 -7 -20 -45 0 -38 -3 -45 -20 -45 -13 0 -20 -7
-20 -20 0 -15 -7 -20 -25 -20 -24 0 -25 -2 -25 -65 0 -58 -2 -65 -20 -65 -17
0 -20 -7 -20 -45 0 -38 -3 -45 -20 -45 -13 0 -20 -7 -20 -20 0 -13 7 -20 20
-20 15 0 20 -7 20 -25 0 -18 5 -25 20 -25 13 0 20 -7 20 -20 0 -15 7 -20 25
-20 23 0 25 -4 25 -45 0 -38 3 -45 20 -45 13 0 20 -7 20 -20 0 -20 7 -20 345
-20 l345 0 0 150 c0 143 -1 150 -20 150 -18 0 -20 7 -20 65 0 58 -2 65 -20 65
-17 0 -20 7 -20 45 0 41 -2 45 -25 45 -23 0 -25 4 -25 45 0 38 -3 45 -20 45
-17 0 -20 7 -20 40 0 33 -3 40 -20 40 -15 0 -20 7 -20 25 0 20 -5 25 -25 25
-18 0 -25 5 -25 20 0 13 -7 20 -20 20 -13 0 -20 7 -20 20 0 13 -7 20 -20 20
-15 0 -20 7 -20 25 0 23 -4 25 -45 25 -38 0 -45 3 -45 20 0 17 -7 20 -45 20
-38 0 -45 -3 -45 -20z m90 -130 c0 -13 7 -20 20 -20 17 0 20 -7 20 -45 0 -41
2 -45 25 -45 18 0 25 -5 25 -20 0 -13 7 -20 20 -20 18 0 20 -7 20 -65 0 -58
-2 -65 -20 -65 -17 0 -20 7 -20 40 0 36 -2 40 -25 40 -20 0 -25 5 -25 25 0 18
-5 25 -20 25 -13 0 -20 7 -20 20 0 13 -7 20 -20 20 -13 0 -20 7 -20 20 0 15
-7 20 -25 20 -23 0 -25 4 -25 45 l0 45 45 0 c38 0 45 -3 45 -20z"/>
<path d="M1300 1495 c0 -23 -4 -25 -45 -25 -38 0 -45 -3 -45 -20 0 -13 -7 -20
-20 -20 -13 0 -20 -7 -20 -20 0 -13 -7 -20 -20 -20 -19 0 -20 -7 -20 -110 0
-103 1 -110 20 -110 13 0 20 -7 20 -20 0 -13 7 -20 20 -20 15 0 20 -7 20 -25
0 -23 4 -25 45 -25 38 0 45 -3 45 -20 0 -17 -7 -20 -45 -20 -38 0 -45 -3 -45
-20 0 -13 -7 -20 -20 -20 -15 0 -20 -7 -20 -25 0 -18 -5 -25 -20 -25 -13 0
-20 -7 -20 -20 0 -15 -7 -20 -25 -20 -23 0 -25 -4 -25 -45 0 -38 -3 -45 -20
-45 -17 0 -20 -7 -20 -40 0 -33 -3 -40 -20 -40 -17 0 -20 -7 -20 -45 0 -41 -2
-45 -25 -45 -18 0 -25 -5 -25 -20 0 -13 -7 -20 -20 -20 -17 0 -20 -7 -20 -45
0 -38 -3 -45 -20 -45 -17 0 -20 -7 -20 -45 0 -41 -2 -45 -25 -45 -18 0 -25 -5
-25 -20 0 -13 -7 -20 -20 -20 -17 0 -20 -7 -20 -45 l0 -45 45 0 c38 0 45 -3
45 -20 0 -18 7 -20 65 -20 58 0 65 -2 65 -20 0 -18 7 -20 65 -20 63 0 65 -1
65 -25 l0 -25 170 0 170 0 0 25 c0 24 2 25 65 25 58 0 65 2 65 20 0 18 7 20
65 20 58 0 65 2 65 20 0 17 7 20 45 20 41 0 45 2 45 25 0 18 5 25 20 25 17 0
20 7 20 40 0 33 -3 40 -20 40 -17 0 -20 7 -20 45 0 38 -3 45 -20 45 -17 0 -20
7 -20 45 0 41 -2 45 -25 45 -22 0 -25 4 -25 40 0 33 -3 40 -20 40 -17 0 -20 7
-20 45 0 38 -3 45 -20 45 -17 0 -20 7 -20 45 0 41 -2 45 -25 45 -22 0 -25 4
-25 40 0 33 -3 40 -20 40 -15 0 -20 7 -20 25 l0 25 -130 0 c-123 0 -130 1
-130 20 0 17 7 20 45 20 38 0 45 3 45 20 0 18 7 20 65 20 63 0 65 1 65 25 0
18 5 25 20 25 13 0 20 7 20 20 0 13 7 20 20 20 19 0 20 7 20 110 0 103 -1 110
-20 110 -13 0 -20 7 -20 20 0 13 -7 20 -20 20 -13 0 -20 7 -20 20 0 17 -7 20
-45 20 -41 0 -45 2 -45 25 0 24 -2 25 -65 25 -63 0 -65 -1 -65 -25z m-220
-1040 c0 -24 2 -25 65 -25 58 0 65 -2 65 -20 0 -18 7 -20 65 -20 58 0 65 -2
65 -20 0 -19 -7 -20 -195 -20 l-195 0 0 65 0 65 65 0 c63 0 65 -1 65 -25z"/>
<path d="M2470 1450 c0 -13 7 -20 20 -20 13 0 20 7 20 20 0 13 -7 20 -20 20
-13 0 -20 -7 -20 -20z"/>
</g>
</svg>
